<svg width="24" height="24" viewBox="0 0 24 24" fill="none" xmlns="http://www.w3.org/2000/svg">
<path d="M8.4498 17.4L3.5248 12.5C3.44147 12.4167 3.38314 12.3334 3.3498 12.25C3.31647 12.1667 3.2998 12.075 3.2998 11.975C3.2998 11.875 3.31647 11.7834 3.3498 11.7C3.38314 11.6167 3.44147 11.5334 3.5248 11.45L8.4498 6.52505C8.58314 6.39171 8.75814 6.32088 8.9748 6.31255C9.19147 6.30421 9.3748 6.37505 9.5248 6.52505C9.6748 6.67505 9.7498 6.85421 9.7498 7.06255C9.7498 7.27088 9.6748 7.45005 9.5248 7.60005L5.8998 11.225H20.2498C20.4665 11.225 20.6456 11.2959 20.7873 11.4375C20.929 11.5792 20.9998 11.7584 20.9998 11.975C20.9998 12.1917 20.929 12.3709 20.7873 12.5125C20.6456 12.6542 20.4665 12.725 20.2498 12.725H5.8998L9.5248 16.35C9.65814 16.4834 9.72897 16.6542 9.7373 16.8625C9.74564 17.0709 9.6748 17.25 9.5248 17.4C9.3748 17.55 9.19564 17.625 8.9873 17.625C8.77897 17.625 8.5998 17.55 8.4498 17.4Z" fill="white"/>
</svg>
