<svg width="20" height="20" viewBox="0 0 20 20" fill="none" xmlns="http://www.w3.org/2000/svg">
<path d="M10.0003 15.8333C9.81977 15.8333 9.67046 15.7743 9.55241 15.6562C9.43435 15.5382 9.37533 15.3888 9.37533 15.2083V10.625H4.79199C4.61144 10.625 4.46213 10.5659 4.34408 10.4479C4.22602 10.3298 4.16699 10.1805 4.16699 9.99996C4.16699 9.8194 4.22602 9.6701 4.34408 9.55204C4.46213 9.43399 4.61144 9.37496 4.79199 9.37496H9.37533V4.79163C9.37533 4.61107 9.43435 4.46176 9.55241 4.34371C9.67046 4.22565 9.81977 4.16663 10.0003 4.16663C10.1809 4.16663 10.3302 4.22565 10.4482 4.34371C10.5663 4.46176 10.6253 4.61107 10.6253 4.79163V9.37496H15.2087C15.3892 9.37496 15.5385 9.43399 15.6566 9.55204C15.7746 9.6701 15.8337 9.8194 15.8337 9.99996C15.8337 10.1805 15.7746 10.3298 15.6566 10.4479C15.5385 10.5659 15.3892 10.625 15.2087 10.625H10.6253V15.2083C10.6253 15.3888 10.5663 15.5382 10.4482 15.6562C10.3302 15.7743 10.1809 15.8333 10.0003 15.8333Z" fill="#2585CD"/>
</svg>
