<svg width="24" height="24" viewBox="0 0 24 24" fill="none" xmlns="http://www.w3.org/2000/svg">
<path d="M17.4702 21C16.7748 21 16.1794 20.7488 15.6838 20.2463C15.1882 19.7437 14.9404 19.14 14.9404 18.435C14.9404 18.33 14.9515 18.2062 14.9736 18.0637C14.9958 17.9212 15.0291 17.79 15.0735 17.67L8.34951 13.71C8.1276 13.965 7.85391 14.1712 7.52843 14.3287C7.20296 14.4862 6.87009 14.565 6.52982 14.565C5.83449 14.565 5.23902 14.3137 4.74341 13.8112C4.2478 13.3087 4 12.705 4 12C4 11.28 4.2478 10.6725 4.74341 10.1775C5.23902 9.6825 5.83449 9.435 6.52982 9.435C6.87009 9.435 7.19556 9.5025 7.50624 9.6375C7.81692 9.7725 8.09801 9.9675 8.34951 10.2225L15.0735 6.3075C15.0291 6.2025 14.9958 6.0825 14.9736 5.9475C14.9515 5.8125 14.9404 5.685 14.9404 5.565C14.9404 4.845 15.1882 4.2375 15.6838 3.7425C16.1794 3.2475 16.7748 3 17.4702 3C18.1803 3 18.7795 3.2475 19.2677 3.7425C19.7559 4.2375 20 4.845 20 5.565C20 6.27 19.7559 6.87375 19.2677 7.37625C18.7795 7.87875 18.1803 8.13 17.4702 8.13C17.1299 8.13 16.8007 8.07375 16.4827 7.96125C16.1646 7.84875 15.8946 7.665 15.6727 7.41L8.94868 11.19C8.97827 11.31 9.00416 11.4487 9.02635 11.6062C9.04854 11.7638 9.05964 11.895 9.05964 12C9.05964 12.105 9.04854 12.2175 9.02635 12.3375C9.00416 12.4575 8.97827 12.5775 8.94868 12.6975L15.6727 16.5675C15.8946 16.3575 16.1535 16.1888 16.4494 16.0613C16.7453 15.9338 17.0855 15.87 17.4702 15.87C18.1803 15.87 18.7795 16.1175 19.2677 16.6125C19.7559 17.1075 20 17.715 20 18.435C20 19.14 19.7559 19.7437 19.2677 20.2463C18.7795 20.7488 18.1803 21 17.4702 21Z" fill="white"/>
</svg>
