<svg width="20" height="20" viewBox="0 0 20 20" fill="none" xmlns="http://www.w3.org/2000/svg">
<path d="M7.37496 14.5416C7.26385 14.4027 7.20482 14.25 7.19788 14.0833C7.19093 13.9166 7.24996 13.7708 7.37496 13.6458L11.0416 9.97913L7.35413 6.29163C7.24302 6.18052 7.19093 6.03122 7.19788 5.84372C7.20482 5.65622 7.26385 5.50691 7.37496 5.3958C7.51385 5.25691 7.66316 5.19094 7.82288 5.19788C7.9826 5.20483 8.12496 5.2708 8.24996 5.3958L12.3958 9.54163C12.4652 9.61108 12.5139 9.68052 12.5416 9.74997C12.5694 9.81941 12.5833 9.8958 12.5833 9.97913C12.5833 10.0625 12.5694 10.1389 12.5416 10.2083C12.5139 10.2777 12.4652 10.3472 12.3958 10.4166L8.2708 14.5416C8.1458 14.6666 7.99996 14.7257 7.83329 14.7187C7.66663 14.7118 7.51385 14.6527 7.37496 14.5416Z" fill="#828282"/>
</svg>
