<svg width="24" height="24" viewBox="0 0 24 24" fill="none" xmlns="http://www.w3.org/2000/svg">
<path d="M8.84995 17.45C8.71662 17.2833 8.64579 17.1 8.63745 16.9C8.62912 16.7 8.69995 16.525 8.84995 16.375L13.25 11.975L8.82495 7.55C8.69162 7.41667 8.62912 7.2375 8.63745 7.0125C8.64579 6.7875 8.71662 6.60833 8.84995 6.475C9.01662 6.30833 9.19579 6.22917 9.38745 6.2375C9.57912 6.24583 9.74995 6.325 9.89995 6.475L14.875 11.45C14.9583 11.5333 15.0166 11.6167 15.05 11.7C15.0833 11.7833 15.1 11.875 15.1 11.975C15.1 12.075 15.0833 12.1667 15.05 12.25C15.0166 12.3333 14.9583 12.4167 14.875 12.5L9.92495 17.45C9.77495 17.6 9.59995 17.6708 9.39995 17.6625C9.19995 17.6542 9.01662 17.5833 8.84995 17.45Z" fill="#333333"/>
</svg>
