<svg width="20" height="21" viewBox="0 0 20 21" fill="none" xmlns="http://www.w3.org/2000/svg">
<path d="M11.229 15.0417L7.104 10.9167C7.03456 10.8473 6.98595 10.7778 6.95817 10.7084C6.93039 10.6389 6.9165 10.5625 6.9165 10.4792C6.9165 10.3959 6.93039 10.3195 6.95817 10.25C6.98595 10.1806 7.03456 10.1112 7.104 10.0417L11.2498 5.89587C11.3748 5.77087 11.5241 5.70837 11.6978 5.70837C11.8714 5.70837 12.0207 5.77087 12.1457 5.89587C12.2707 6.02087 12.3297 6.17365 12.3228 6.35421C12.3158 6.53476 12.2498 6.68754 12.1248 6.81254L8.45817 10.4792L12.1457 14.1667C12.2707 14.2917 12.3332 14.4375 12.3332 14.6042C12.3332 14.7709 12.2707 14.9167 12.1457 15.0417C12.0207 15.1667 11.8679 15.2292 11.6873 15.2292C11.5068 15.2292 11.354 15.1667 11.229 15.0417Z" fill="#333333"/>
</svg>
